<svg xmlns = "http://www.w3.org/2000/svg" width = "1000" height = "1000">
<g>
<polygon points = "878.352, 177.163 785.837, 135.126 926.670, 77.697 991.791, 125.108 "
fill = "none" stroke = "white"/>
</g>
<g>
<polygon points = "991.791, 125.108 926.670, 77.697 865.565, 0.000 1000.000, 0.000 1000.000, 124.141 "
fill = "none" stroke = "white"/>
</g>
<g>
<polygon points = "370.972, 317.839 391.763, 322.931 412.891, 443.531 296.653, 426.119 283.546, 395.155 "
fill = "none" stroke = "white"/>
</g>
<g>
<polygon points = "20.751, 765.730 160.756, 852.759 152.824, 898.797 52.860, 889.266 14.571, 767.510 "
fill = "none" stroke = "white"/>
</g>
<g>
<polygon points = "907.016, 427.199 885.279, 332.162 971.240, 240.812 1000.000, 232.083 1000.000, 286.338 "
fill = "none" stroke = "white"/>
</g>
<g>
<polygon points = "211.425, 513.062 225.418, 349.796 283.546, 395.155 296.653, 426.119 300.153, 471.329 227.199, 527.448 "
fill = "none" stroke = "white"/>
</g>
<g>
<polygon points = "490.018, 411.291 581.997, 431.803 610.874, 542.991 602.171, 559.234 591.223, 557.298 478.579, 452.625 "
fill = "none" stroke = "white"/>
</g>
<g>
<polygon points = "922.619, 875.936 846.908, 918.352 843.326, 814.463 899.713, 803.088 1000.000, 813.748 1000.000, 820.862 "
fill = "none" stroke = "white"/>
</g>
<g>
<polygon points = "163.834, 57.716 169.263, 72.795 167.419, 167.028 136.750, 201.150 44.160, 172.631 127.656, 76.305 "
fill = "none" stroke = "white"/>
</g>
<g>
<polygon points = "373.561, 172.850 297.578, 142.363 389.417, 0.000 426.332, 0.000 "
fill = "none" stroke = "white"/>
</g>
<g>
<polygon points = "373.476, 552.378 247.200, 594.013 228.434, 568.275 227.199, 527.448 300.153, 471.329 "
fill = "none" stroke = "white"/>
</g>
<g>
<polygon points = "743.051, 116.496 640.561, 111.712 638.212, 0.000 711.700, 0.000 "
fill = "none" stroke = "white"/>
</g>
<g>
<polygon points = "863.425, 209.043 856.745, 215.557 756.159, 216.695 705.447, 185.844 752.018, 129.381 780.771, 133.557 785.837, 135.126 878.352, 177.163 "
fill = "none" stroke = "white"/>
</g>
<g>
<polygon points = "837.951, 942.048 748.442, 870.369 751.907, 837.495 787.017, 782.109 843.326, 814.463 846.908, 918.352 "
fill = "none" stroke = "white"/>
</g>
<g>
<polygon points = "127.656, 76.305 44.160, 172.631 42.164, 172.577 0.000, 152.773 0.000, 42.701 "
fill = "none" stroke = "white"/>
</g>
<g>
<polygon points = "530.547, 708.741 532.015, 696.985 641.240, 623.742 686.181, 650.010 687.183, 708.591 540.433, 727.364 "
fill = "none" stroke = "white"/>
</g>
<g>
<polygon points = "615.430, 218.094 622.859, 208.183 705.447, 185.844 756.159, 216.695 738.197, 294.799 698.421, 293.638 678.505, 288.276 "
fill = "none" stroke = "white"/>
</g>
<g>
<polygon points = "190.918, 319.960 217.784, 294.406 360.962, 306.177 370.972, 317.839 283.546, 395.155 225.418, 349.796 "
fill = "none" stroke = "white"/>
</g>
<g>
<polygon points = "582.724, 348.936 678.505, 288.276 698.421, 293.638 703.433, 411.983 592.933, 389.962 "
fill = "none" stroke = "white"/>
</g>
<g>
<polygon points = "905.891, 440.175 847.553, 502.041 844.116, 500.610 821.429, 327.363 827.141, 320.826 885.279, 332.162 907.016, 427.199 "
fill = "none" stroke = "white"/>
</g>
<g>
<polygon points = "971.240, 240.812 885.279, 332.162 827.141, 320.826 856.745, 215.557 863.425, 209.043 "
fill = "none" stroke = "white"/>
</g>
<g>
<polygon points = "752.018, 129.381 705.447, 185.844 622.859, 208.183 591.541, 151.013 640.561, 111.712 743.051, 116.496 "
fill = "none" stroke = "white"/>
</g>
<g>
<polygon points = "557.068, 121.362 556.224, 130.990 480.314, 205.042 456.138, 194.140 447.368, 37.361 "
fill = "none" stroke = "white"/>
</g>
<g>
<polygon points = "543.858, 296.557 546.232, 256.884 615.430, 218.094 678.505, 288.276 582.724, 348.936 "
fill = "none" stroke = "white"/>
</g>
<g>
<polygon points = "899.713, 803.088 915.359, 702.048 917.399, 697.892 1000.000, 703.315 1000.000, 813.748 "
fill = "none" stroke = "white"/>
</g>
<g>
<polygon points = "377.494, 554.718 434.395, 463.590 460.198, 459.386 502.326, 622.409 379.869, 559.126 "
fill = "none" stroke = "white"/>
</g>
<g>
<polygon points = "375.118, 581.464 472.607, 704.053 386.063, 716.955 323.127, 681.042 "
fill = "none" stroke = "white"/>
</g>
<g>
<polygon points = "641.032, 802.062 595.147, 808.601 536.780, 769.671 540.433, 727.364 687.183, 708.591 690.431, 711.791 "
fill = "none" stroke = "white"/>
</g>
<g>
<polygon points = "681.000, 901.191 748.442, 870.369 837.951, 942.048 842.878, 1000.000 807.318, 1000.000 "
fill = "none" stroke = "white"/>
</g>
<g>
<polygon points = "905.891, 440.175 907.016, 427.199 1000.000, 286.338 1000.000, 487.719 "
fill = "none" stroke = "white"/>
</g>
<g>
<polygon points = "702.381, 532.087 733.294, 637.932 686.181, 650.010 641.240, 623.742 602.171, 559.234 610.874, 542.991 "
fill = "none" stroke = "white"/>
</g>
<g>
<polygon points = "142.958, 460.365 177.637, 320.962 190.918, 319.960 225.418, 349.796 211.425, 513.062 "
fill = "none" stroke = "white"/>
</g>
<g>
<polygon points = "92.621, 729.566 91.286, 709.683 261.821, 641.314 277.853, 675.537 163.456, 759.176 "
fill = "none" stroke = "white"/>
</g>
<g>
<polygon points = "447.368, 37.361 456.138, 194.140 402.961, 193.469 373.561, 172.850 426.332, 0.000 441.200, 0.000 "
fill = "none" stroke = "white"/>
</g>
<g>
<polygon points = "163.834, 57.716 127.656, 76.305 0.000, 42.701 0.000, 0.000 163.140, 0.000 "
fill = "none" stroke = "white"/>
</g>
<g>
<polygon points = "52.860, 889.266 152.824, 898.797 150.042, 945.453 137.803, 1000.000 53.634, 1000.000 "
fill = "none" stroke = "white"/>
</g>
<g>
<polygon points = "882.911, 549.077 847.553, 502.041 905.891, 440.175 1000.000, 487.719 1000.000, 519.565 "
fill = "none" stroke = "white"/>
</g>
<g>
<polygon points = "14.571, 767.510 52.860, 889.266 53.634, 1000.000 0.000, 1000.000 0.000, 767.724 "
fill = "none" stroke = "white"/>
</g>
<g>
<polygon points = "810.513, 503.706 771.004, 488.763 757.706, 442.777 796.427, 333.202 821.429, 327.363 844.116, 500.610 "
fill = "none" stroke = "white"/>
</g>
<g>
<polygon points = "428.542, 894.840 535.059, 918.407 518.038, 1000.000 414.310, 1000.000 "
fill = "none" stroke = "white"/>
</g>
<g>
<polygon points = "535.059, 918.407 549.648, 905.232 641.097, 918.915 640.569, 1000.000 518.038, 1000.000 "
fill = "none" stroke = "white"/>
</g>
<g>
<polygon points = "882.911, 549.077 872.295, 591.834 852.107, 618.059 783.175, 644.013 768.557, 638.565 810.513, 503.706 844.116, 500.610 847.553, 502.041 "
fill = "none" stroke = "white"/>
</g>
<g>
<polygon points = "337.435, 872.349 350.444, 862.472 422.036, 879.852 428.542, 894.840 414.310, 1000.000 352.053, 1000.000 "
fill = "none" stroke = "white"/>
</g>
<g>
<polygon points = "402.107, 767.731 355.682, 829.563 294.355, 751.176 295.319, 682.221 323.127, 681.042 386.063, 716.955 "
fill = "none" stroke = "white"/>
</g>
<g>
<polygon points = "208.557, 814.497 294.355, 751.176 355.682, 829.563 350.444, 862.472 337.435, 872.349 301.965, 873.861 294.017, 870.931 "
fill = "none" stroke = "white"/>
</g>
<g>
<polygon points = "733.294, 637.932 768.557, 638.565 783.175, 644.013 787.727, 737.809 782.816, 774.684 690.431, 711.791 687.183, 708.591 686.181, 650.010 "
fill = "none" stroke = "white"/>
</g>
<g>
<polygon points = "478.579, 452.625 591.223, 557.298 502.958, 622.840 502.326, 622.409 460.198, 459.386 "
fill = "none" stroke = "white"/>
</g>
<g>
<polygon points = "588.270, 411.916 734.773, 509.340 702.381, 532.087 610.874, 542.991 581.997, 431.803 "
fill = "none" stroke = "white"/>
</g>
<g>
<polygon points = "42.164, 172.577 44.160, 172.631 136.750, 201.150 175.719, 320.715 123.943, 336.308 "
fill = "none" stroke = "white"/>
</g>
<g>
<polygon points = "294.017, 870.931 301.965, 873.861 229.567, 1000.000 137.803, 1000.000 150.042, 945.453 "
fill = "none" stroke = "white"/>
</g>
<g>
<polygon points = "54.030, 403.118 101.447, 352.502 123.943, 336.308 175.719, 320.715 177.637, 320.962 142.958, 460.365 89.859, 456.450 "
fill = "none" stroke = "white"/>
</g>
<g>
<polygon points = "89.922, 703.457 67.451, 648.510 110.500, 541.712 201.347, 567.979 "
fill = "none" stroke = "white"/>
</g>
<g>
<polygon points = "301.965, 873.861 337.435, 872.349 352.053, 1000.000 229.567, 1000.000 "
fill = "none" stroke = "white"/>
</g>
<g>
<polygon points = "796.427, 333.202 757.706, 442.777 703.433, 411.983 698.421, 293.638 738.197, 294.799 "
fill = "none" stroke = "white"/>
</g>
<g>
<polygon points = "279.543, 120.131 169.263, 72.795 163.834, 57.716 163.140, 0.000 262.673, 0.000 "
fill = "none" stroke = "white"/>
</g>
<g>
<polygon points = "482.529, 210.312 480.314, 205.042 556.224, 130.990 591.541, 151.013 622.859, 208.183 615.430, 218.094 546.232, 256.884 "
fill = "none" stroke = "white"/>
</g>
<g>
<polygon points = "649.278, 907.798 641.097, 918.915 549.648, 905.232 525.188, 780.818 536.780, 769.671 595.147, 808.601 "
fill = "none" stroke = "white"/>
</g>
<g>
<polygon points = "917.399, 697.892 852.107, 618.059 872.295, 591.834 1000.000, 639.422 1000.000, 703.315 "
fill = "none" stroke = "white"/>
</g>
<g>
<polygon points = "641.097, 918.915 649.278, 907.798 681.000, 901.191 807.318, 1000.000 640.569, 1000.000 "
fill = "none" stroke = "white"/>
</g>
<g>
<polygon points = "482.529, 210.312 546.232, 256.884 543.858, 296.557 479.789, 355.765 424.077, 318.769 "
fill = "none" stroke = "white"/>
</g>
<g>
<polygon points = "557.068, 121.362 447.368, 37.361 441.200, 0.000 576.550, 0.000 "
fill = "none" stroke = "white"/>
</g>
<g>
<polygon points = "872.295, 591.834 882.911, 549.077 1000.000, 519.565 1000.000, 639.422 "
fill = "none" stroke = "white"/>
</g>
<g>
<polygon points = "640.561, 111.712 591.541, 151.013 556.224, 130.990 557.068, 121.362 576.550, 0.000 638.212, 0.000 "
fill = "none" stroke = "white"/>
</g>
<g>
<polygon points = "89.001, 496.705 110.500, 541.712 67.451, 648.510 0.000, 612.890 0.000, 559.392 "
fill = "none" stroke = "white"/>
</g>
<g>
<polygon points = "787.727, 737.809 783.175, 644.013 852.107, 618.059 917.399, 697.892 915.359, 702.048 "
fill = "none" stroke = "white"/>
</g>
<g>
<polygon points = "424.077, 318.769 479.789, 355.765 490.018, 411.291 478.579, 452.625 460.198, 459.386 434.395, 463.590 412.891, 443.531 391.763, 322.931 "
fill = "none" stroke = "white"/>
</g>
<g>
<polygon points = "950.547, 1000.000 842.878, 1000.000 837.951, 942.048 846.908, 918.352 922.619, 875.936 "
fill = "none" stroke = "white"/>
</g>
<g>
<polygon points = "780.771, 133.557 752.018, 129.381 743.051, 116.496 711.700, 0.000 830.071, 0.000 "
fill = "none" stroke = "white"/>
</g>
<g>
<polygon points = "355.682, 829.563 402.107, 767.731 504.882, 788.207 422.036, 879.852 350.444, 862.472 "
fill = "none" stroke = "white"/>
</g>
<g>
<polygon points = "592.933, 389.962 703.433, 411.983 757.706, 442.777 771.004, 488.763 734.773, 509.340 588.270, 411.916 "
fill = "none" stroke = "white"/>
</g>
<g>
<polygon points = "101.447, 352.502 54.030, 403.118 0.000, 411.451 0.000, 237.355 "
fill = "none" stroke = "white"/>
</g>
<g>
<polygon points = "434.395, 463.590 377.494, 554.718 373.476, 552.378 300.153, 471.329 296.653, 426.119 412.891, 443.531 "
fill = "none" stroke = "white"/>
</g>
<g>
<polygon points = "297.578, 142.363 289.751, 141.746 279.543, 120.131 262.673, 0.000 389.417, 0.000 "
fill = "none" stroke = "white"/>
</g>
<g>
<polygon points = "67.451, 648.510 89.922, 703.457 91.286, 709.683 92.621, 729.566 20.751, 765.730 14.571, 767.510 0.000, 767.724 0.000, 612.890 "
fill = "none" stroke = "white"/>
</g>
<g>
<polygon points = "42.164, 172.577 123.943, 336.308 101.447, 352.502 0.000, 237.355 0.000, 152.773 "
fill = "none" stroke = "white"/>
</g>
<g>
<polygon points = "422.036, 879.852 504.882, 788.207 525.188, 780.818 549.648, 905.232 535.059, 918.407 428.542, 894.840 "
fill = "none" stroke = "white"/>
</g>
<g>
<polygon points = "89.001, 496.705 89.859, 456.450 142.958, 460.365 211.425, 513.062 227.199, 527.448 228.434, 568.275 201.347, 567.979 110.500, 541.712 "
fill = "none" stroke = "white"/>
</g>
<g>
<polygon points = "360.962, 306.177 372.790, 252.154 402.961, 193.469 456.138, 194.140 480.314, 205.042 482.529, 210.312 424.077, 318.769 391.763, 322.931 370.972, 317.839 "
fill = "none" stroke = "white"/>
</g>
<g>
<polygon points = "89.922, 703.457 201.347, 567.979 228.434, 568.275 247.200, 594.013 261.821, 641.314 91.286, 709.683 "
fill = "none" stroke = "white"/>
</g>
<g>
<polygon points = "243.907, 209.059 372.790, 252.154 360.962, 306.177 217.784, 294.406 "
fill = "none" stroke = "white"/>
</g>
<g>
<polygon points = "971.240, 240.812 863.425, 209.043 878.352, 177.163 991.791, 125.108 1000.000, 124.141 1000.000, 232.083 "
fill = "none" stroke = "white"/>
</g>
<g>
<polygon points = "926.670, 77.697 785.837, 135.126 780.771, 133.557 830.071, 0.000 865.565, 0.000 "
fill = "none" stroke = "white"/>
</g>
<g>
<polygon points = "183.109, 808.857 163.456, 759.176 277.853, 675.537 295.319, 682.221 294.355, 751.176 208.557, 814.497 "
fill = "none" stroke = "white"/>
</g>
<g>
<polygon points = "379.869, 559.126 502.326, 622.409 502.958, 622.840 532.015, 696.985 530.547, 708.741 472.607, 704.053 375.118, 581.464 "
fill = "none" stroke = "white"/>
</g>
<g>
<polygon points = "92.621, 729.566 163.456, 759.176 183.109, 808.857 160.756, 852.759 20.751, 765.730 "
fill = "none" stroke = "white"/>
</g>
<g>
<polygon points = "734.773, 509.340 771.004, 488.763 810.513, 503.706 768.557, 638.565 733.294, 637.932 702.381, 532.087 "
fill = "none" stroke = "white"/>
</g>
<g>
<polygon points = "782.816, 774.684 787.727, 737.809 915.359, 702.048 899.713, 803.088 843.326, 814.463 787.017, 782.109 "
fill = "none" stroke = "white"/>
</g>
<g>
<polygon points = "827.141, 320.826 821.429, 327.363 796.427, 333.202 738.197, 294.799 756.159, 216.695 856.745, 215.557 "
fill = "none" stroke = "white"/>
</g>
<g>
<polygon points = "54.030, 403.118 89.859, 456.450 89.001, 496.705 0.000, 559.392 0.000, 411.451 "
fill = "none" stroke = "white"/>
</g>
<g>
<polygon points = "244.486, 205.190 243.907, 209.059 217.784, 294.406 190.918, 319.960 177.637, 320.962 175.719, 320.715 136.750, 201.150 167.419, 167.028 "
fill = "none" stroke = "white"/>
</g>
<g>
<polygon points = "183.109, 808.857 208.557, 814.497 294.017, 870.931 150.042, 945.453 152.824, 898.797 160.756, 852.759 "
fill = "none" stroke = "white"/>
</g>
<g>
<polygon points = "377.494, 554.718 379.869, 559.126 375.118, 581.464 323.127, 681.042 295.319, 682.221 277.853, 675.537 261.821, 641.314 247.200, 594.013 373.476, 552.378 "
fill = "none" stroke = "white"/>
</g>
<g>
<polygon points = "244.486, 205.190 289.751, 141.746 297.578, 142.363 373.561, 172.850 402.961, 193.469 372.790, 252.154 243.907, 209.059 "
fill = "none" stroke = "white"/>
</g>
<g>
<polygon points = "950.547, 1000.000 922.619, 875.936 1000.000, 820.862 1000.000, 1000.000 "
fill = "none" stroke = "white"/>
</g>
<g>
<polygon points = "479.789, 355.765 543.858, 296.557 582.724, 348.936 592.933, 389.962 588.270, 411.916 581.997, 431.803 490.018, 411.291 "
fill = "none" stroke = "white"/>
</g>
<g>
<polygon points = "504.882, 788.207 402.107, 767.731 386.063, 716.955 472.607, 704.053 530.547, 708.741 540.433, 727.364 536.780, 769.671 525.188, 780.818 "
fill = "none" stroke = "white"/>
</g>
<g>
<polygon points = "279.543, 120.131 289.751, 141.746 244.486, 205.190 167.419, 167.028 169.263, 72.795 "
fill = "none" stroke = "white"/>
</g>
<g>
<polygon points = "649.278, 907.798 595.147, 808.601 641.032, 802.062 751.907, 837.495 748.442, 870.369 681.000, 901.191 "
fill = "none" stroke = "white"/>
</g>
<g>
<polygon points = "641.032, 802.062 690.431, 711.791 782.816, 774.684 787.017, 782.109 751.907, 837.495 "
fill = "none" stroke = "white"/>
</g>
<g>
<polygon points = "641.240, 623.742 532.015, 696.985 502.958, 622.840 591.223, 557.298 602.171, 559.234 "
fill = "none" stroke = "white"/>
</g>
<g>
<circle cx = "850.324" cy = "83.887" r = "3" fill="white" />
<circle cx = "896.898" cy = "19.916" r = "3" fill="white" />
<circle cx = "435.125" cy = "396.101" r = "3" fill="white" />
<circle cx = "95.667" cy = "882.874" r = "3" fill="white" />
<circle cx = "950.845" cy = "333.886" r = "3" fill="white" />
<circle cx = "260.508" cy = "470.013" r = "3" fill="white" />
<circle cx = "615.331" cy = "420.127" r = "3" fill="white" />
<circle cx = "940.261" cy = "853.554" r = "3" fill="white" />
<circle cx = "148.929" cy = "102.155" r = "3" fill="white" />
<circle cx = "442.728" cy = "63.701" r = "3" fill="white" />
<circle cx = "322.595" cy = "550.726" r = "3" fill="white" />
<circle cx = "728.465" cy = "81.410" r = "3" fill="white" />
<circle cx = "803.668" cy = "186.568" r = "3" fill="white" />
<circle cx = "791.415" cy = "858.686" r = "3" fill="white" />
<circle cx = "119.846" cy = "76.945" r = "3" fill="white" />
<circle cx = "639.224" cy = "651.518" r = "3" fill="white" />
<circle cx = "762.182" cy = "254.761" r = "3" fill="white" />
<circle cx = "372.999" cy = "325.852" r = "3" fill="white" />
<circle cx = "741.127" cy = "332.967" r = "3" fill="white" />
<circle cx = "897.825" cy = "346.013" r = "3" fill="white" />
<circle cx = "908.043" cy = "293.609" r = "3" fill="white" />
<circle cx = "726.526" cy = "122.941" r = "3" fill="white" />
<circle cx = "550.144" cy = "69.546" r = "3" fill="white" />
<circle cx = "717.200" cy = "295.188" r = "3" fill="white" />
<circle cx = "959.302" cy = "674.437" r = "3" fill="white" />
<circle cx = "512.728" cy = "511.375" r = "3" fill="white" />
<circle cx = "426.043" cy = "649.109" r = "3" fill="white" />
<circle cx = "654.970" cy = "774.605" r = "3" fill="white" />
<circle cx = "714.842" cy = "954.306" r = "3" fill="white" />
<circle cx = "980.018" cy = "353.143" r = "3" fill="white" />
<circle cx = "736.522" cy = "485.055" r = "3" fill="white" />
<circle cx = "249.169" cy = "469.041" r = "3" fill="white" />
<circle cx = "190.493" cy = "674.488" r = "3" fill="white" />
<circle cx = "475.541" cy = "73.719" r = "3" fill="white" />
<circle cx = "125.310" cy = "56.189" r = "3" fill="white" />
<circle cx = "94.084" cy = "899.471" r = "3" fill="white" />
<circle cx = "955.937" cy = "400.811" r = "3" fill="white" />
<circle cx = "41.725" cy = "899.838" r = "3" fill="white" />
<circle cx = "825.788" cy = "355.447" r = "3" fill="white" />
<circle cx = "485.636" cy = "964.861" r = "3" fill="white" />
<circle cx = "562.084" cy = "980.809" r = "3" fill="white" />
<circle cx = "838.125" cy = "489.374" r = "3" fill="white" />
<circle cx = "398.034" cy = "953.005" r = "3" fill="white" />
<circle cx = "347.969" cy = "785.930" r = "3" fill="white" />
<circle cx = "299.795" cy = "823.619" r = "3" fill="white" />
<circle cx = "778.584" cy = "649.135" r = "3" fill="white" />
<circle cx = "536.168" cy = "505.318" r = "3" fill="white" />
<circle cx = "725.380" cy = "391.546" r = "3" fill="white" />
<circle cx = "116.285" cy = "208.136" r = "3" fill="white" />
<circle cx = "258.254" cy = "936.305" r = "3" fill="white" />
<circle cx = "190.463" cy = "454.437" r = "3" fill="white" />
<circle cx = "159.882" cy = "635.078" r = "3" fill="white" />
<circle cx = "305.760" cy = "963.572" r = "3" fill="white" />
<circle cx = "759.922" cy = "332.172" r = "3" fill="white" />
<circle cx = "281.818" cy = "54.308" r = "3" fill="white" />
<circle cx = "645.520" cy = "167.317" r = "3" fill="white" />
<circle cx = "574.997" cy = "894.508" r = "3" fill="white" />
<circle cx = "965.038" cy = "587.074" r = "3" fill="white" />
<circle cx = "693.441" cy = "981.666" r = "3" fill="white" />
<circle cx = "558.958" cy = "285.720" r = "3" fill="white" />
<circle cx = "557.283" cy = "60.223" r = "3" fill="white" />
<circle cx = "987.614" cy = "526.490" r = "3" fill="white" />
<circle cx = "693.813" cy = "82.139" r = "3" fill="white" />
<circle cx = "81.466" cy = "603.470" r = "3" fill="white" />
<circle cx = "896.132" cy = "643.430" r = "3" fill="white" />
<circle cx = "492.312" cy = "386.082" r = "3" fill="white" />
<circle cx = "983.891" cy = "931.433" r = "3" fill="white" />
<circle cx = "822.618" cy = "56.072" r = "3" fill="white" />
<circle cx = "424.623" cy = "843.485" r = "3" fill="white" />
<circle cx = "731.196" cy = "382.800" r = "3" fill="white" />
<circle cx = "3.100" cy = "278.913" r = "3" fill="white" />
<circle cx = "425.971" cy = "457.203" r = "3" fill="white" />
<circle cx = "402.005" cy = "37.430" r = "3" fill="white" />
<circle cx = "38.577" cy = "684.685" r = "3" fill="white" />
<circle cx = "40.433" cy = "246.022" r = "3" fill="white" />
<circle cx = "497.846" cy = "909.676" r = "3" fill="white" />
<circle cx = "183.052" cy = "554.945" r = "3" fill="white" />
<circle cx = "473.447" cy = "239.635" r = "3" fill="white" />
<circle cx = "181.979" cy = "653.252" r = "3" fill="white" />
<circle cx = "381.738" cy = "219.555" r = "3" fill="white" />
<circle cx = "923.105" cy = "242.492" r = "3" fill="white" />
<circle cx = "841.882" cy = "63.183" r = "3" fill="white" />
<circle cx = "271.187" cy = "784.856" r = "3" fill="white" />
<circle cx = "452.370" cy = "628.172" r = "3" fill="white" />
<circle cx = "119.230" cy = "844.967" r = "3" fill="white" />
<circle cx = "781.767" cy = "471.841" r = "3" fill="white" />
<circle cx = "902.348" cy = "665.618" r = "3" fill="white" />
<circle cx = "804.549" cy = "264.504" r = "3" fill="white" />
<circle cx = "45.222" cy = "552.010" r = "3" fill="white" />
<circle cx = "226.777" cy = "172.124" r = "3" fill="white" />
<circle cx = "243.809" cy = "908.399" r = "3" fill="white" />
<circle cx = "340.268" cy = "604.325" r = "3" fill="white" />
<circle cx = "389.462" cy = "196.456" r = "3" fill="white" />
<circle cx = "994.060" cy = "929.144" r = "3" fill="white" />
<circle cx = "628.518" cy = "360.991" r = "3" fill="white" />
<circle cx = "442.010" cy = "756.215" r = "3" fill="white" />
<circle cx = "260.345" cy = "104.335" r = "3" fill="white" />
<circle cx = "665.054" cy = "845.365" r = "3" fill="white" />
<circle cx = "682.800" cy = "789.834" r = "3" fill="white" />
<circle cx = "587.941" cy = "575.042" r = "3" fill="white" />
</g>
</svg>
