<svg xmlns = "http://www.w3.org/2000/svg" width = "1000" height = "1000">
<g>
<polygon points = "874.308, 100.250 798.832, 65.954 799.568, 0.000 949.140, 0.000 "
fill = "none" stroke = "white"/>
</g>
<g>
<polygon points = "513.666, 347.782 433.658, 415.738 411.500, 353.062 460.487, 255.714 462.334, 255.292 526.993, 301.629 "
fill = "none" stroke = "white"/>
</g>
<g>
<polygon points = "987.822, 322.946 880.857, 275.435 958.373, 193.061 1000.000, 180.426 1000.000, 322.020 "
fill = "none" stroke = "white"/>
</g>
<g>
<polygon points = "584.234, 359.625 654.602, 375.318 677.218, 427.135 628.640, 517.808 585.844, 478.040 "
fill = "none" stroke = "white"/>
</g>
<g>
<polygon points = "250.126, 94.616 247.891, 208.836 159.931, 181.744 131.703, 161.859 190.407, 94.135 240.656, 68.315 "
fill = "none" stroke = "white"/>
</g>
<g>
<polygon points = "407.249, 538.226 404.072, 597.889 382.599, 620.468 314.215, 603.392 308.326, 597.106 324.687, 468.305 "
fill = "none" stroke = "white"/>
</g>
<g>
<polygon points = "875.449, 103.764 848.761, 160.761 817.609, 191.137 730.315, 138.031 798.832, 65.954 874.308, 100.250 "
fill = "none" stroke = "white"/>
</g>
<g>
<polygon points = "83.886, 66.095 190.407, 94.135 131.703, 161.859 0.000, 118.057 0.000, 110.637 "
fill = "none" stroke = "white"/>
</g>
<g>
<polygon points = "675.005, 159.937 730.315, 138.031 817.609, 191.137 810.728, 216.974 773.928, 240.222 662.158, 210.131 "
fill = "none" stroke = "white"/>
</g>
<g>
<polygon points = "658.697, 304.310 641.770, 236.290 662.158, 210.131 773.928, 240.222 753.543, 316.995 "
fill = "none" stroke = "white"/>
</g>
<g>
<polygon points = "958.373, 193.061 880.857, 275.435 859.685, 282.094 810.728, 216.974 817.609, 191.137 848.761, 160.761 "
fill = "none" stroke = "white"/>
</g>
<g>
<polygon points = "515.696, 172.362 506.327, 171.257 496.792, 159.185 516.031, 70.443 527.402, 46.302 651.967, 141.686 "
fill = "none" stroke = "white"/>
</g>
<g>
<polygon points = "986.889, 831.217 958.799, 798.726 967.002, 579.005 988.170, 535.880 1000.000, 534.649 1000.000, 829.962 "
fill = "none" stroke = "white"/>
</g>
<g>
<polygon points = "462.419, 603.507 536.969, 678.399 499.595, 701.839 470.348, 701.625 416.332, 687.930 382.599, 620.468 404.072, 597.889 "
fill = "none" stroke = "white"/>
</g>
<g>
<polygon points = "658.245, 895.519 812.809, 878.950 823.170, 910.665 782.941, 995.562 657.113, 897.136 "
fill = "none" stroke = "white"/>
</g>
<g>
<polygon points = "718.195, 427.143 688.188, 589.510 655.626, 600.132 636.752, 598.016 628.640, 517.808 677.218, 427.135 "
fill = "none" stroke = "white"/>
</g>
<g>
<polygon points = "289.490, 649.600 141.376, 711.091 138.848, 669.509 144.079, 647.183 291.156, 588.219 308.326, 597.106 314.215, 603.392 "
fill = "none" stroke = "white"/>
</g>
<g>
<polygon points = "240.656, 68.315 190.407, 94.135 83.886, 66.095 162.170, 0.000 239.835, 0.000 "
fill = "none" stroke = "white"/>
</g>
<g>
<polygon points = "882.340, 411.095 987.822, 322.946 1000.000, 322.020 1000.000, 483.711 "
fill = "none" stroke = "white"/>
</g>
<g>
<polygon points = "850.237, 337.980 758.354, 353.457 753.543, 316.995 773.928, 240.222 810.728, 216.974 859.685, 282.094 "
fill = "none" stroke = "white"/>
</g>
<g>
<polygon points = "497.494, 958.676 512.563, 909.507 616.115, 925.001 620.310, 927.177 619.835, 1000.000 490.490, 1000.000 "
fill = "none" stroke = "white"/>
</g>
<g>
<polygon points = "357.718, 885.424 497.494, 958.676 490.490, 1000.000 370.839, 1000.000 "
fill = "none" stroke = "white"/>
</g>
<g>
<polygon points = "375.431, 859.736 355.849, 879.026 284.754, 882.057 271.450, 873.272 300.957, 794.665 382.764, 734.289 "
fill = "none" stroke = "white"/>
</g>
<g>
<polygon points = "537.442, 485.813 585.844, 478.040 628.640, 517.808 636.752, 598.016 616.535, 611.190 541.976, 560.500 515.007, 507.378 "
fill = "none" stroke = "white"/>
</g>
<g>
<polygon points = "164.697, 303.302 163.689, 302.763 147.785, 270.920 159.931, 181.744 247.891, 208.836 268.028, 236.784 260.000, 273.744 "
fill = "none" stroke = "white"/>
</g>
<g>
<polygon points = "222.521, 377.564 251.381, 457.354 226.735, 476.441 111.924, 467.975 112.158, 425.751 132.145, 403.291 "
fill = "none" stroke = "white"/>
</g>
<g>
<polygon points = "260.779, 908.977 284.754, 882.057 355.849, 879.026 357.718, 885.424 370.839, 1000.000 304.063, 1000.000 "
fill = "none" stroke = "white"/>
</g>
<g>
<polygon points = "354.931, 3.367 309.866, 120.259 250.126, 94.616 240.656, 68.315 239.835, 0.000 353.521, 0.000 "
fill = "none" stroke = "white"/>
</g>
<g>
<polygon points = "573.623, 786.134 616.115, 925.001 512.563, 909.507 501.643, 862.957 517.072, 817.484 "
fill = "none" stroke = "white"/>
</g>
<g>
<polygon points = "620.310, 927.177 657.113, 897.136 782.941, 995.562 782.466, 1000.000 619.835, 1000.000 "
fill = "none" stroke = "white"/>
</g>
<g>
<polygon points = "657.899, 117.655 654.097, 141.340 651.967, 141.686 527.402, 46.302 545.310, 0.000 622.366, 0.000 "
fill = "none" stroke = "white"/>
</g>
<g>
<polygon points = "798.832, 65.954 730.315, 138.031 675.005, 159.937 654.097, 141.340 657.899, 117.655 792.354, 0.000 799.568, 0.000 "
fill = "none" stroke = "white"/>
</g>
<g>
<polygon points = "861.316, 517.565 872.586, 514.563 988.170, 535.880 967.002, 579.005 966.946, 579.036 818.196, 620.714 "
fill = "none" stroke = "white"/>
</g>
<g>
<polygon points = "948.190, 1000.000 931.076, 947.357 937.212, 861.101 986.889, 831.217 1000.000, 829.962 1000.000, 1000.000 "
fill = "none" stroke = "white"/>
</g>
<g>
<polygon points = "517.072, 817.484 501.643, 862.957 419.982, 848.065 470.348, 701.625 499.595, 701.839 "
fill = "none" stroke = "white"/>
</g>
<g>
<polygon points = "98.709, 310.890 12.291, 391.390 0.000, 391.778 0.000, 198.851 "
fill = "none" stroke = "white"/>
</g>
<g>
<polygon points = "385.776, 53.128 516.031, 70.443 496.792, 159.185 413.464, 152.612 "
fill = "none" stroke = "white"/>
</g>
<g>
<polygon points = "147.785, 270.920 163.689, 302.763 98.709, 310.890 0.000, 198.851 0.000, 142.297 "
fill = "none" stroke = "white"/>
</g>
<g>
<polygon points = "104.984, 545.890 106.443, 477.393 111.924, 467.975 226.735, 476.441 239.050, 552.061 118.337, 550.744 "
fill = "none" stroke = "white"/>
</g>
<g>
<polygon points = "118.337, 550.744 239.050, 552.061 291.156, 588.219 144.079, 647.183 "
fill = "none" stroke = "white"/>
</g>
<g>
<polygon points = "958.373, 193.061 848.761, 160.761 875.449, 103.764 1000.000, 115.180 1000.000, 180.426 "
fill = "none" stroke = "white"/>
</g>
<g>
<polygon points = "212.363, 754.861 280.530, 695.789 391.997, 711.060 382.764, 734.289 300.957, 794.665 "
fill = "none" stroke = "white"/>
</g>
<g>
<polygon points = "85.291, 784.593 124.537, 907.127 108.892, 937.853 0.000, 891.515 0.000, 876.466 "
fill = "none" stroke = "white"/>
</g>
<g>
<polygon points = "873.885, 708.429 794.096, 661.079 792.293, 652.665 818.196, 620.714 966.946, 579.036 "
fill = "none" stroke = "white"/>
</g>
<g>
<polygon points = "106.443, 477.393 104.984, 545.890 0.000, 638.522 0.000, 516.923 "
fill = "none" stroke = "white"/>
</g>
<g>
<polygon points = "124.334, 973.003 108.892, 937.853 124.537, 907.127 193.496, 860.272 271.450, 873.272 284.754, 882.057 260.779, 908.977 "
fill = "none" stroke = "white"/>
</g>
<g>
<polygon points = "420.856, 253.409 357.248, 193.372 364.560, 183.123 413.464, 152.612 496.792, 159.185 506.327, 171.257 462.334, 255.292 460.487, 255.714 "
fill = "none" stroke = "white"/>
</g>
<g>
<polygon points = "551.504, 302.272 599.760, 249.264 641.770, 236.290 658.697, 304.310 654.602, 375.318 584.234, 359.625 "
fill = "none" stroke = "white"/>
</g>
<g>
<polygon points = "309.866, 120.259 364.560, 183.123 357.248, 193.372 268.028, 236.784 247.891, 208.836 250.126, 94.616 "
fill = "none" stroke = "white"/>
</g>
<g>
<polygon points = "578.358, 664.380 597.636, 640.822 716.299, 746.269 655.045, 792.013 600.087, 750.716 "
fill = "none" stroke = "white"/>
</g>
<g>
<polygon points = "657.899, 117.655 622.366, 0.000 792.354, 0.000 "
fill = "none" stroke = "white"/>
</g>
<g>
<polygon points = "104.984, 545.890 118.337, 550.744 144.079, 647.183 138.848, 669.509 0.000, 648.041 0.000, 638.522 "
fill = "none" stroke = "white"/>
</g>
<g>
<polygon points = "758.354, 353.457 850.237, 337.980 879.015, 409.349 741.121, 439.673 725.030, 425.462 "
fill = "none" stroke = "white"/>
</g>
<g>
<polygon points = "108.892, 937.853 124.334, 973.003 125.901, 1000.000 0.000, 1000.000 0.000, 891.515 "
fill = "none" stroke = "white"/>
</g>
<g>
<polygon points = "306.414, 341.097 318.957, 447.466 316.950, 453.447 251.381, 457.354 222.521, 377.564 278.878, 302.000 289.136, 306.740 "
fill = "none" stroke = "white"/>
</g>
<g>
<polygon points = "506.327, 171.257 515.696, 172.362 599.760, 249.264 551.504, 302.272 526.993, 301.629 462.334, 255.292 "
fill = "none" stroke = "white"/>
</g>
<g>
<polygon points = "782.792, 749.415 767.090, 739.757 655.626, 600.132 688.188, 589.510 709.487, 585.660 792.293, 652.665 794.096, 661.079 "
fill = "none" stroke = "white"/>
</g>
<g>
<polygon points = "824.178, 829.528 826.543, 826.678 937.212, 861.101 931.076, 947.357 823.170, 910.665 812.809, 878.950 "
fill = "none" stroke = "white"/>
</g>
<g>
<polygon points = "725.030, 425.462 741.121, 439.673 811.101, 521.022 709.487, 585.660 688.188, 589.510 718.195, 427.143 "
fill = "none" stroke = "white"/>
</g>
<g>
<polygon points = "239.050, 552.061 226.735, 476.441 251.381, 457.354 316.950, 453.447 324.687, 468.305 308.326, 597.106 291.156, 588.219 "
fill = "none" stroke = "white"/>
</g>
<g>
<polygon points = "138.848, 669.509 141.376, 711.091 115.425, 765.182 89.744, 773.044 0.000, 660.050 0.000, 648.041 "
fill = "none" stroke = "white"/>
</g>
<g>
<polygon points = "946.272, 792.374 793.753, 763.322 782.792, 749.415 794.096, 661.079 873.885, 708.429 "
fill = "none" stroke = "white"/>
</g>
<g>
<polygon points = "12.291, 391.390 98.709, 310.890 163.689, 302.763 164.697, 303.302 132.145, 403.291 112.158, 425.751 "
fill = "none" stroke = "white"/>
</g>
<g>
<polygon points = "655.045, 792.013 716.299, 746.269 767.090, 739.757 782.792, 749.415 793.753, 763.322 826.543, 826.678 824.178, 829.528 667.457, 816.227 "
fill = "none" stroke = "white"/>
</g>
<g>
<polygon points = "875.449, 103.764 874.308, 100.250 949.140, 0.000 1000.000, 0.000 1000.000, 115.180 "
fill = "none" stroke = "white"/>
</g>
<g>
<polygon points = "937.212, 861.101 826.543, 826.678 793.753, 763.322 946.272, 792.374 958.799, 798.726 986.889, 831.217 "
fill = "none" stroke = "white"/>
</g>
<g>
<polygon points = "811.101, 521.022 741.121, 439.673 879.015, 409.349 880.063, 411.142 872.586, 514.563 861.316, 517.565 "
fill = "none" stroke = "white"/>
</g>
<g>
<polygon points = "12.291, 391.390 112.158, 425.751 111.924, 467.975 106.443, 477.393 0.000, 516.923 0.000, 391.778 "
fill = "none" stroke = "white"/>
</g>
<g>
<polygon points = "667.457, 816.227 824.178, 829.528 812.809, 878.950 658.245, 895.519 "
fill = "none" stroke = "white"/>
</g>
<g>
<polygon points = "357.718, 885.424 355.849, 879.026 375.431, 859.736 419.982, 848.065 501.643, 862.957 512.563, 909.507 497.494, 958.676 "
fill = "none" stroke = "white"/>
</g>
<g>
<polygon points = "357.248, 193.372 420.856, 253.409 289.136, 306.740 278.878, 302.000 260.000, 273.744 268.028, 236.784 "
fill = "none" stroke = "white"/>
</g>
<g>
<polygon points = "988.170, 535.880 872.586, 514.563 880.063, 411.142 882.340, 411.095 1000.000, 483.711 1000.000, 534.649 "
fill = "none" stroke = "white"/>
</g>
<g>
<polygon points = "193.496, 860.272 176.565, 774.724 212.363, 754.861 300.957, 794.665 271.450, 873.272 "
fill = "none" stroke = "white"/>
</g>
<g>
<polygon points = "473.056, 497.308 515.007, 507.378 541.976, 560.500 462.419, 603.507 404.072, 597.889 407.249, 538.226 "
fill = "none" stroke = "white"/>
</g>
<g>
<polygon points = "882.340, 411.095 880.063, 411.142 879.015, 409.349 850.237, 337.980 859.685, 282.094 880.857, 275.435 987.822, 322.946 "
fill = "none" stroke = "white"/>
</g>
<g>
<polygon points = "164.697, 303.302 260.000, 273.744 278.878, 302.000 222.521, 377.564 132.145, 403.291 "
fill = "none" stroke = "white"/>
</g>
<g>
<polygon points = "527.402, 46.302 516.031, 70.443 385.776, 53.128 354.931, 3.367 353.521, 0.000 545.310, 0.000 "
fill = "none" stroke = "white"/>
</g>
<g>
<polygon points = "89.744, 773.044 85.291, 784.593 0.000, 876.466 0.000, 660.050 "
fill = "none" stroke = "white"/>
</g>
<g>
<polygon points = "419.982, 848.065 375.431, 859.736 382.764, 734.289 391.997, 711.060 416.332, 687.930 470.348, 701.625 "
fill = "none" stroke = "white"/>
</g>
<g>
<polygon points = "600.087, 750.716 655.045, 792.013 667.457, 816.227 658.245, 895.519 657.113, 897.136 620.310, 927.177 616.115, 925.001 573.623, 786.134 "
fill = "none" stroke = "white"/>
</g>
<g>
<polygon points = "176.565, 774.724 115.425, 765.182 141.376, 711.091 289.490, 649.600 280.530, 695.789 212.363, 754.861 "
fill = "none" stroke = "white"/>
</g>
<g>
<polygon points = "541.976, 560.500 616.535, 611.190 597.636, 640.822 578.358, 664.380 536.969, 678.399 462.419, 603.507 "
fill = "none" stroke = "white"/>
</g>
<g>
<polygon points = "473.056, 497.308 407.249, 538.226 324.687, 468.305 316.950, 453.447 318.957, 447.466 432.199, 425.565 "
fill = "none" stroke = "white"/>
</g>
<g>
<polygon points = "616.535, 611.190 636.752, 598.016 655.626, 600.132 767.090, 739.757 716.299, 746.269 597.636, 640.822 "
fill = "none" stroke = "white"/>
</g>
<g>
<polygon points = "83.886, 66.095 0.000, 110.637 0.000, 0.000 162.170, 0.000 "
fill = "none" stroke = "white"/>
</g>
<g>
<polygon points = "131.703, 161.859 159.931, 181.744 147.785, 270.920 0.000, 142.297 0.000, 118.057 "
fill = "none" stroke = "white"/>
</g>
<g>
<polygon points = "515.696, 172.362 651.967, 141.686 654.097, 141.340 675.005, 159.937 662.158, 210.131 641.770, 236.290 599.760, 249.264 "
fill = "none" stroke = "white"/>
</g>
<g>
<polygon points = "391.997, 711.060 280.530, 695.789 289.490, 649.600 314.215, 603.392 382.599, 620.468 416.332, 687.930 "
fill = "none" stroke = "white"/>
</g>
<g>
<polygon points = "658.697, 304.310 753.543, 316.995 758.354, 353.457 725.030, 425.462 718.195, 427.143 677.218, 427.135 654.602, 375.318 "
fill = "none" stroke = "white"/>
</g>
<g>
<polygon points = "811.101, 521.022 861.316, 517.565 818.196, 620.714 792.293, 652.665 709.487, 585.660 "
fill = "none" stroke = "white"/>
</g>
<g>
<polygon points = "946.272, 792.374 873.885, 708.429 966.946, 579.036 967.002, 579.005 958.799, 798.726 "
fill = "none" stroke = "white"/>
</g>
<g>
<polygon points = "578.358, 664.380 600.087, 750.716 573.623, 786.134 517.072, 817.484 499.595, 701.839 536.969, 678.399 "
fill = "none" stroke = "white"/>
</g>
<g>
<polygon points = "385.776, 53.128 413.464, 152.612 364.560, 183.123 309.866, 120.259 354.931, 3.367 "
fill = "none" stroke = "white"/>
</g>
<g>
<polygon points = "124.334, 973.003 260.779, 908.977 304.063, 1000.000 125.901, 1000.000 "
fill = "none" stroke = "white"/>
</g>
<g>
<polygon points = "420.856, 253.409 460.487, 255.714 411.500, 353.062 306.414, 341.097 289.136, 306.740 "
fill = "none" stroke = "white"/>
</g>
<g>
<polygon points = "551.504, 302.272 584.234, 359.625 585.844, 478.040 537.442, 485.813 513.666, 347.782 526.993, 301.629 "
fill = "none" stroke = "white"/>
</g>
<g>
<polygon points = "931.076, 947.357 948.190, 1000.000 782.466, 1000.000 782.941, 995.562 823.170, 910.665 "
fill = "none" stroke = "white"/>
</g>
<g>
<polygon points = "432.199, 425.565 318.957, 447.466 306.414, 341.097 411.500, 353.062 433.658, 415.738 "
fill = "none" stroke = "white"/>
</g>
<g>
<polygon points = "537.442, 485.813 515.007, 507.378 473.056, 497.308 432.199, 425.565 433.658, 415.738 513.666, 347.782 "
fill = "none" stroke = "white"/>
</g>
<g>
<polygon points = "176.565, 774.724 193.496, 860.272 124.537, 907.127 85.291, 784.593 89.744, 773.044 115.425, 765.182 "
fill = "none" stroke = "white"/>
</g>
<g>
<circle cx = "850.324" cy = "83.887" r = "3" fill="white" />
<circle cx = "435.125" cy = "396.101" r = "3" fill="white" />
<circle cx = "950.845" cy = "333.886" r = "3" fill="white" />
<circle cx = "615.331" cy = "420.127" r = "3" fill="white" />
<circle cx = "148.929" cy = "102.155" r = "3" fill="white" />
<circle cx = "322.595" cy = "550.726" r = "3" fill="white" />
<circle cx = "803.668" cy = "186.568" r = "3" fill="white" />
<circle cx = "119.846" cy = "76.945" r = "3" fill="white" />
<circle cx = "762.182" cy = "254.761" r = "3" fill="white" />
<circle cx = "741.127" cy = "332.967" r = "3" fill="white" />
<circle cx = "908.043" cy = "293.609" r = "3" fill="white" />
<circle cx = "550.144" cy = "69.546" r = "3" fill="white" />
<circle cx = "959.302" cy = "674.437" r = "3" fill="white" />
<circle cx = "426.043" cy = "649.109" r = "3" fill="white" />
<circle cx = "714.842" cy = "954.306" r = "3" fill="white" />
<circle cx = "736.522" cy = "485.055" r = "3" fill="white" />
<circle cx = "190.493" cy = "674.488" r = "3" fill="white" />
<circle cx = "125.310" cy = "56.189" r = "3" fill="white" />
<circle cx = "955.937" cy = "400.811" r = "3" fill="white" />
<circle cx = "825.788" cy = "355.447" r = "3" fill="white" />
<circle cx = "562.084" cy = "980.809" r = "3" fill="white" />
<circle cx = "398.034" cy = "953.005" r = "3" fill="white" />
<circle cx = "299.795" cy = "823.619" r = "3" fill="white" />
<circle cx = "536.168" cy = "505.318" r = "3" fill="white" />
<circle cx = "116.285" cy = "208.136" r = "3" fill="white" />
<circle cx = "190.463" cy = "454.437" r = "3" fill="white" />
<circle cx = "305.760" cy = "963.572" r = "3" fill="white" />
<circle cx = "281.818" cy = "54.308" r = "3" fill="white" />
<circle cx = "574.997" cy = "894.508" r = "3" fill="white" />
<circle cx = "693.441" cy = "981.666" r = "3" fill="white" />
<circle cx = "557.283" cy = "60.223" r = "3" fill="white" />
<circle cx = "693.813" cy = "82.139" r = "3" fill="white" />
<circle cx = "896.132" cy = "643.430" r = "3" fill="white" />
<circle cx = "983.891" cy = "931.433" r = "3" fill="white" />
<circle cx = "424.623" cy = "843.485" r = "3" fill="white" />
<circle cx = "3.100" cy = "278.913" r = "3" fill="white" />
<circle cx = "402.005" cy = "37.430" r = "3" fill="white" />
<circle cx = "40.433" cy = "246.022" r = "3" fill="white" />
<circle cx = "183.052" cy = "554.945" r = "3" fill="white" />
<circle cx = "181.979" cy = "653.252" r = "3" fill="white" />
<circle cx = "923.105" cy = "242.492" r = "3" fill="white" />
<circle cx = "271.187" cy = "784.856" r = "3" fill="white" />
<circle cx = "119.230" cy = "844.967" r = "3" fill="white" />
<circle cx = "902.348" cy = "665.618" r = "3" fill="white" />
<circle cx = "45.222" cy = "552.010" r = "3" fill="white" />
<circle cx = "243.809" cy = "908.399" r = "3" fill="white" />
<circle cx = "389.462" cy = "196.456" r = "3" fill="white" />
<circle cx = "628.518" cy = "360.991" r = "3" fill="white" />
<circle cx = "260.345" cy = "104.335" r = "3" fill="white" />
<circle cx = "682.800" cy = "789.834" r = "3" fill="white" />
<circle cx = "650.104" cy = "32.189" r = "3" fill="white" />
<circle cx = "143.593" cy = "663.498" r = "3" fill="white" />
<circle cx = "835.484" cy = "413.010" r = "3" fill="white" />
<circle cx = "57.387" cy = "990.296" r = "3" fill="white" />
<circle cx = "252.169" cy = "432.119" r = "3" fill="white" />
<circle cx = "526.707" cy = "268.306" r = "3" fill="white" />
<circle cx = "802.404" cy = "687.035" r = "3" fill="white" />
<circle cx = "820.452" cy = "919.805" r = "3" fill="white" />
<circle cx = "766.901" cy = "490.669" r = "3" fill="white" />
<circle cx = "258.753" cy = "542.616" r = "3" fill="white" />
<circle cx = "141.432" cy = "677.470" r = "3" fill="white" />
<circle cx = "883.481" cy = "697.411" r = "3" fill="white" />
<circle cx = "50.974" cy = "330.307" r = "3" fill="white" />
<circle cx = "713.710" cy = "831.224" r = "3" fill="white" />
<circle cx = "932.051" cy = "144.893" r = "3" fill="white" />
<circle cx = "873.772" cy = "748.383" r = "3" fill="white" />
<circle cx = "838.935" cy = "428.703" r = "3" fill="white" />
<circle cx = "8.612" cy = "453.428" r = "3" fill="white" />
<circle cx = "708.380" cy = "894.026" r = "3" fill="white" />
<circle cx = "408.182" cy = "933.642" r = "3" fill="white" />
<circle cx = "333.841" cy = "255.385" r = "3" fill="white" />
<circle cx = "934.460" cy = "435.609" r = "3" fill="white" />
<circle cx = "260.413" cy = "808.837" r = "3" fill="white" />
<circle cx = "434.938" cy = "556.708" r = "3" fill="white" />
<circle cx = "933.203" cy = "373.607" r = "3" fill="white" />
<circle cx = "165.766" cy = "367.678" r = "3" fill="white" />
<circle cx = "406.716" cy = "1.988" r = "3" fill="white" />
<circle cx = "32.232" cy = "764.201" r = "3" fill="white" />
<circle cx = "380.599" cy = "828.343" r = "3" fill="white" />
<circle cx = "612.847" cy = "882.927" r = "3" fill="white" />
<circle cx = "204.241" cy = "707.603" r = "3" fill="white" />
<circle cx = "464.301" cy = "611.026" r = "3" fill="white" />
<circle cx = "385.231" cy = "476.765" r = "3" fill="white" />
<circle cx = "705.175" cy = "764.655" r = "3" fill="white" />
<circle cx = "80.887" cy = "3.573" r = "3" fill="white" />
<circle cx = "77.951" cy = "202.914" r = "3" fill="white" />
<circle cx = "581.422" cy = "208.495" r = "3" fill="white" />
<circle cx = "279.764" cy = "722.254" r = "3" fill="white" />
<circle cx = "736.546" cy = "367.222" r = "3" fill="white" />
<circle cx = "852.462" cy = "625.174" r = "3" fill="white" />
<circle cx = "912.164" cy = "672.677" r = "3" fill="white" />
<circle cx = "537.273" cy = "826.461" r = "3" fill="white" />
<circle cx = "306.782" cy = "63.932" r = "3" fill="white" />
<circle cx = "276.278" cy = "977.592" r = "3" fill="white" />
<circle cx = "379.478" cy = "368.099" r = "3" fill="white" />
<circle cx = "522.690" cy = "421.386" r = "3" fill="white" />
<circle cx = "795.693" cy = "992.617" r = "3" fill="white" />
<circle cx = "373.822" cy = "417.773" r = "3" fill="white" />
<circle cx = "465.036" cy = "431.317" r = "3" fill="white" />
<circle cx = "186.147" cy = "823.535" r = "3" fill="white" />
</g>
</svg>
