<svg xmlns = "http://www.w3.org/2000/svg" width = "1000" height = "1000">
<g>
<polygon points = ""
fill = "none" stroke = "white"/>
</g>
<g>
<polygon points = ""
fill = "none" stroke = "white"/>
</g>
<g>
<polygon points = ""
fill = "none" stroke = "white"/>
</g>
<g>
<polygon points = ""
fill = "none" stroke = "white"/>
</g>
<g>
<polygon points = "950.570, 563.871 857.710, 450.060 844.235, 430.956 846.015, 232.832 857.172, 209.306 1000.000, 151.815 1000.000, 562.644 "
fill = "none" stroke = "white"/>
</g>
<g>
<polygon points = "110.044, 394.791 210.062, 296.522 230.273, 290.392 345.515, 344.717 384.248, 451.693 369.845, 539.525 334.446, 582.467 304.644, 572.262 "
fill = "none" stroke = "white"/>
</g>
<g>
<polygon points = "555.280, 257.417 570.933, 245.112 615.964, 237.849 722.056, 412.256 665.593, 517.645 568.187, 500.423 507.054, 431.683 "
fill = "none" stroke = "white"/>
</g>
<g>
<polygon points = ""
fill = "none" stroke = "white"/>
</g>
<g>
<polygon points = "341.924, 5.603 230.273, 290.392 210.062, 296.522 0.000, 138.107 0.000, 0.000 341.349, 0.000 "
fill = "none" stroke = "white"/>
</g>
<g>
<polygon points = ""
fill = "none" stroke = "white"/>
</g>
<g>
<polygon points = ""
fill = "none" stroke = "white"/>
</g>
<g>
<polygon points = ""
fill = "none" stroke = "white"/>
</g>
<g>
<polygon points = ""
fill = "none" stroke = "white"/>
</g>
<g>
<polygon points = "805.515, 768.729 889.303, 763.599 891.370, 765.482 809.829, 1000.000 781.135, 1000.000 "
fill = "none" stroke = "white"/>
</g>
<g>
<polygon points = ""
fill = "none" stroke = "white"/>
</g>
<g>
<polygon points = ""
fill = "none" stroke = "white"/>
</g>
<g>
<polygon points = ""
fill = "none" stroke = "white"/>
</g>
<g>
<polygon points = ""
fill = "none" stroke = "white"/>
</g>
<g>
<polygon points = ""
fill = "none" stroke = "white"/>
</g>
<g>
<polygon points = ""
fill = "none" stroke = "white"/>
</g>
<g>
<polygon points = ""
fill = "none" stroke = "white"/>
</g>
<g>
<polygon points = ""
fill = "none" stroke = "white"/>
</g>
<g>
<polygon points = ""
fill = "none" stroke = "white"/>
</g>
<g>
<polygon points = ""
fill = "none" stroke = "white"/>
</g>
<g>
<polygon points = "891.370, 765.482 889.303, 763.599 912.610, 597.136 950.570, 563.871 1000.000, 562.644 1000.000, 750.658 "
fill = "none" stroke = "white"/>
</g>
<g>
<polygon points = "507.054, 431.683 568.187, 500.423 484.801, 598.931 369.845, 539.525 384.248, 451.693 "
fill = "none" stroke = "white"/>
</g>
<g>
<polygon points = ""
fill = "none" stroke = "white"/>
</g>
<g>
<polygon points = ""
fill = "none" stroke = "white"/>
</g>
<g>
<polygon points = ""
fill = "none" stroke = "white"/>
</g>
<g>
<polygon points = ""
fill = "none" stroke = "white"/>
</g>
<g>
<polygon points = "900.601, 596.921 738.737, 638.415 665.593, 517.645 722.056, 412.256 844.235, 430.956 857.710, 450.060 "
fill = "none" stroke = "white"/>
</g>
<g>
<polygon points = ""
fill = "none" stroke = "white"/>
</g>
<g>
<polygon points = "73.074, 586.677 304.644, 572.262 334.446, 582.467 356.165, 705.272 177.006, 836.261 114.512, 852.435 0.000, 776.838 0.000, 673.351 "
fill = "none" stroke = "white"/>
</g>
<g>
<polygon points = ""
fill = "none" stroke = "white"/>
</g>
<g>
<polygon points = ""
fill = "none" stroke = "white"/>
</g>
<g>
<polygon points = ""
fill = "none" stroke = "white"/>
</g>
<g>
<polygon points = ""
fill = "none" stroke = "white"/>
</g>
<g>
<polygon points = "114.512, 852.435 89.659, 1000.000 0.000, 1000.000 0.000, 776.838 "
fill = "none" stroke = "white"/>
</g>
<g>
<polygon points = ""
fill = "none" stroke = "white"/>
</g>
<g>
<polygon points = "407.899, 808.944 415.994, 799.300 520.826, 777.380 530.372, 776.437 676.770, 996.245 675.986, 1000.000 406.529, 1000.000 "
fill = "none" stroke = "white"/>
</g>
<g>
<polygon points = "676.770, 996.245 681.709, 1000.000 675.986, 1000.000 "
fill = "none" stroke = "white"/>
</g>
<g>
<polygon points = ""
fill = "none" stroke = "white"/>
</g>
<g>
<polygon points = ""
fill = "none" stroke = "white"/>
</g>
<g>
<polygon points = ""
fill = "none" stroke = "white"/>
</g>
<g>
<polygon points = ""
fill = "none" stroke = "white"/>
</g>
<g>
<polygon points = "738.737, 638.415 900.601, 596.921 912.610, 597.136 889.303, 763.599 805.515, 768.729 709.647, 713.264 "
fill = "none" stroke = "white"/>
</g>
<g>
<polygon points = ""
fill = "none" stroke = "white"/>
</g>
<g>
<polygon points = ""
fill = "none" stroke = "white"/>
</g>
<g>
<polygon points = ""
fill = "none" stroke = "white"/>
</g>
<g>
<polygon points = "114.512, 852.435 177.006, 836.261 239.229, 841.574 148.299, 1000.000 89.659, 1000.000 "
fill = "none" stroke = "white"/>
</g>
<g>
<polygon points = ""
fill = "none" stroke = "white"/>
</g>
<g>
<polygon points = ""
fill = "none" stroke = "white"/>
</g>
<g>
<polygon points = "239.229, 841.574 407.899, 808.944 406.529, 1000.000 148.299, 1000.000 "
fill = "none" stroke = "white"/>
</g>
<g>
<polygon points = "692.760, 180.625 716.738, 174.286 792.027, 197.226 846.015, 232.832 844.235, 430.956 722.056, 412.256 615.964, 237.849 "
fill = "none" stroke = "white"/>
</g>
<g>
<polygon points = ""
fill = "none" stroke = "white"/>
</g>
<g>
<polygon points = ""
fill = "none" stroke = "white"/>
</g>
<g>
<polygon points = ""
fill = "none" stroke = "white"/>
</g>
<g>
<polygon points = ""
fill = "none" stroke = "white"/>
</g>
<g>
<polygon points = ""
fill = "none" stroke = "white"/>
</g>
<g>
<polygon points = ""
fill = "none" stroke = "white"/>
</g>
<g>
<polygon points = "706.551, 94.712 692.760, 180.625 615.964, 237.849 570.933, 245.112 515.219, 219.078 341.924, 5.603 341.349, 0.000 707.536, 0.000 "
fill = "none" stroke = "white"/>
</g>
<g>
<polygon points = ""
fill = "none" stroke = "white"/>
</g>
<g>
<polygon points = "716.738, 174.286 692.760, 180.625 706.551, 94.712 "
fill = "none" stroke = "white"/>
</g>
<g>
<polygon points = ""
fill = "none" stroke = "white"/>
</g>
<g>
<polygon points = ""
fill = "none" stroke = "white"/>
</g>
<g>
<polygon points = "491.269, 265.662 555.280, 257.417 507.054, 431.683 384.248, 451.693 345.515, 344.717 "
fill = "none" stroke = "white"/>
</g>
<g>
<polygon points = ""
fill = "none" stroke = "white"/>
</g>
<g>
<polygon points = ""
fill = "none" stroke = "white"/>
</g>
<g>
<polygon points = ""
fill = "none" stroke = "white"/>
</g>
<g>
<polygon points = ""
fill = "none" stroke = "white"/>
</g>
<g>
<polygon points = ""
fill = "none" stroke = "white"/>
</g>
<g>
<polygon points = ""
fill = "none" stroke = "white"/>
</g>
<g>
<polygon points = ""
fill = "none" stroke = "white"/>
</g>
<g>
<polygon points = ""
fill = "none" stroke = "white"/>
</g>
<g>
<polygon points = "210.062, 296.522 110.044, 394.791 76.834, 410.123 0.000, 411.326 0.000, 138.107 "
fill = "none" stroke = "white"/>
</g>
<g>
<polygon points = ""
fill = "none" stroke = "white"/>
</g>
<g>
<polygon points = "76.834, 410.123 110.044, 394.791 304.644, 572.262 73.074, 586.677 "
fill = "none" stroke = "white"/>
</g>
<g>
<polygon points = "515.219, 219.078 570.933, 245.112 555.280, 257.417 491.269, 265.662 "
fill = "none" stroke = "white"/>
</g>
<g>
<polygon points = ""
fill = "none" stroke = "white"/>
</g>
<g>
<polygon points = ""
fill = "none" stroke = "white"/>
</g>
<g>
<polygon points = ""
fill = "none" stroke = "white"/>
</g>
<g>
<polygon points = "857.172, 209.306 792.027, 197.226 716.738, 174.286 706.551, 94.712 707.536, 0.000 1000.000, 0.000 1000.000, 151.815 "
fill = "none" stroke = "white"/>
</g>
<g>
<polygon points = "239.229, 841.574 177.006, 836.261 356.165, 705.272 410.826, 768.480 415.994, 799.300 407.899, 808.944 "
fill = "none" stroke = "white"/>
</g>
<g>
<polygon points = "484.801, 598.931 547.712, 759.458 530.372, 776.437 520.826, 777.380 410.826, 768.480 356.165, 705.272 334.446, 582.467 369.845, 539.525 "
fill = "none" stroke = "white"/>
</g>
<g>
<polygon points = ""
fill = "none" stroke = "white"/>
</g>
<g>
<polygon points = "912.610, 597.136 900.601, 596.921 857.710, 450.060 950.570, 563.871 "
fill = "none" stroke = "white"/>
</g>
<g>
<polygon points = ""
fill = "none" stroke = "white"/>
</g>
<g>
<polygon points = "792.027, 197.226 857.172, 209.306 846.015, 232.832 "
fill = "none" stroke = "white"/>
</g>
<g>
<polygon points = "76.834, 410.123 73.074, 586.677 0.000, 673.351 0.000, 411.326 "
fill = "none" stroke = "white"/>
</g>
<g>
<polygon points = ""
fill = "none" stroke = "white"/>
</g>
<g>
<polygon points = ""
fill = "none" stroke = "white"/>
</g>
<g>
<polygon points = ""
fill = "none" stroke = "white"/>
</g>
<g>
<polygon points = "515.219, 219.078 491.269, 265.662 345.515, 344.717 230.273, 290.392 341.924, 5.603 "
fill = "none" stroke = "white"/>
</g>
<g>
<polygon points = "809.829, 1000.000 891.370, 765.482 1000.000, 750.658 1000.000, 1000.000 "
fill = "none" stroke = "white"/>
</g>
<g>
<polygon points = ""
fill = "none" stroke = "white"/>
</g>
<g>
<polygon points = "520.826, 777.380 415.994, 799.300 410.826, 768.480 "
fill = "none" stroke = "white"/>
</g>
<g>
<polygon points = ""
fill = "none" stroke = "white"/>
</g>
<g>
<polygon points = "676.770, 996.245 530.372, 776.437 547.712, 759.458 709.647, 713.264 805.515, 768.729 781.135, 1000.000 681.709, 1000.000 "
fill = "none" stroke = "white"/>
</g>
<g>
<polygon points = ""
fill = "none" stroke = "white"/>
</g>
<g>
<polygon points = "738.737, 638.415 709.647, 713.264 547.712, 759.458 484.801, 598.931 568.187, 500.423 665.593, 517.645 "
fill = "none" stroke = "white"/>
</g>
<g>
<circle cx = "850.324" cy = "83.887" r = "3" fill="white" />
<circle cx = "896.898" cy = "19.916" r = "3" fill="white" />
<circle cx = "435.125" cy = "396.101" r = "3" fill="white" />
<circle cx = "95.667" cy = "882.874" r = "3" fill="white" />
<circle cx = "950.845" cy = "333.886" r = "3" fill="white" />
<circle cx = "260.508" cy = "470.013" r = "3" fill="white" />
<circle cx = "615.331" cy = "420.127" r = "3" fill="white" />
<circle cx = "940.261" cy = "853.554" r = "3" fill="white" />
<circle cx = "148.929" cy = "102.155" r = "3" fill="white" />
<circle cx = "442.728" cy = "63.701" r = "3" fill="white" />
<circle cx = "322.595" cy = "550.726" r = "3" fill="white" />
<circle cx = "728.465" cy = "81.410" r = "3" fill="white" />
<circle cx = "803.668" cy = "186.568" r = "3" fill="white" />
<circle cx = "791.415" cy = "858.686" r = "3" fill="white" />
<circle cx = "119.846" cy = "76.945" r = "3" fill="white" />
<circle cx = "639.224" cy = "651.518" r = "3" fill="white" />
<circle cx = "762.182" cy = "254.761" r = "3" fill="white" />
<circle cx = "372.999" cy = "325.852" r = "3" fill="white" />
<circle cx = "741.127" cy = "332.967" r = "3" fill="white" />
<circle cx = "897.825" cy = "346.013" r = "3" fill="white" />
<circle cx = "908.043" cy = "293.609" r = "3" fill="white" />
<circle cx = "726.526" cy = "122.941" r = "3" fill="white" />
<circle cx = "550.144" cy = "69.546" r = "3" fill="white" />
<circle cx = "717.200" cy = "295.188" r = "3" fill="white" />
<circle cx = "959.302" cy = "674.437" r = "3" fill="white" />
<circle cx = "512.728" cy = "511.375" r = "3" fill="white" />
<circle cx = "426.043" cy = "649.109" r = "3" fill="white" />
<circle cx = "654.970" cy = "774.605" r = "3" fill="white" />
<circle cx = "714.842" cy = "954.306" r = "3" fill="white" />
<circle cx = "980.018" cy = "353.143" r = "3" fill="white" />
<circle cx = "736.522" cy = "485.055" r = "3" fill="white" />
<circle cx = "249.169" cy = "469.041" r = "3" fill="white" />
<circle cx = "190.493" cy = "674.488" r = "3" fill="white" />
<circle cx = "475.541" cy = "73.719" r = "3" fill="white" />
<circle cx = "125.310" cy = "56.189" r = "3" fill="white" />
<circle cx = "94.084" cy = "899.471" r = "3" fill="white" />
<circle cx = "955.937" cy = "400.811" r = "3" fill="white" />
<circle cx = "41.725" cy = "899.838" r = "3" fill="white" />
<circle cx = "825.788" cy = "355.447" r = "3" fill="white" />
<circle cx = "485.636" cy = "964.861" r = "3" fill="white" />
<circle cx = "562.084" cy = "980.809" r = "3" fill="white" />
<circle cx = "838.125" cy = "489.374" r = "3" fill="white" />
<circle cx = "398.034" cy = "953.005" r = "3" fill="white" />
<circle cx = "347.969" cy = "785.930" r = "3" fill="white" />
<circle cx = "299.795" cy = "823.619" r = "3" fill="white" />
<circle cx = "778.584" cy = "649.135" r = "3" fill="white" />
<circle cx = "536.168" cy = "505.318" r = "3" fill="white" />
<circle cx = "725.380" cy = "391.546" r = "3" fill="white" />
<circle cx = "116.285" cy = "208.136" r = "3" fill="white" />
<circle cx = "258.254" cy = "936.305" r = "3" fill="white" />
<circle cx = "190.463" cy = "454.437" r = "3" fill="white" />
<circle cx = "159.882" cy = "635.078" r = "3" fill="white" />
<circle cx = "305.760" cy = "963.572" r = "3" fill="white" />
<circle cx = "759.922" cy = "332.172" r = "3" fill="white" />
<circle cx = "281.818" cy = "54.308" r = "3" fill="white" />
<circle cx = "645.520" cy = "167.317" r = "3" fill="white" />
<circle cx = "574.997" cy = "894.508" r = "3" fill="white" />
<circle cx = "965.038" cy = "587.074" r = "3" fill="white" />
<circle cx = "693.441" cy = "981.666" r = "3" fill="white" />
<circle cx = "558.958" cy = "285.720" r = "3" fill="white" />
<circle cx = "557.283" cy = "60.223" r = "3" fill="white" />
<circle cx = "987.614" cy = "526.490" r = "3" fill="white" />
<circle cx = "693.813" cy = "82.139" r = "3" fill="white" />
<circle cx = "81.466" cy = "603.470" r = "3" fill="white" />
<circle cx = "896.132" cy = "643.430" r = "3" fill="white" />
<circle cx = "492.312" cy = "386.082" r = "3" fill="white" />
<circle cx = "983.891" cy = "931.433" r = "3" fill="white" />
<circle cx = "822.618" cy = "56.072" r = "3" fill="white" />
<circle cx = "424.623" cy = "843.485" r = "3" fill="white" />
<circle cx = "731.196" cy = "382.800" r = "3" fill="white" />
<circle cx = "3.100" cy = "278.913" r = "3" fill="white" />
<circle cx = "425.971" cy = "457.203" r = "3" fill="white" />
<circle cx = "402.005" cy = "37.430" r = "3" fill="white" />
<circle cx = "38.577" cy = "684.685" r = "3" fill="white" />
<circle cx = "40.433" cy = "246.022" r = "3" fill="white" />
<circle cx = "497.846" cy = "909.676" r = "3" fill="white" />
<circle cx = "183.052" cy = "554.945" r = "3" fill="white" />
<circle cx = "473.447" cy = "239.635" r = "3" fill="white" />
<circle cx = "181.979" cy = "653.252" r = "3" fill="white" />
<circle cx = "381.738" cy = "219.555" r = "3" fill="white" />
<circle cx = "923.105" cy = "242.492" r = "3" fill="white" />
<circle cx = "841.882" cy = "63.183" r = "3" fill="white" />
<circle cx = "271.187" cy = "784.856" r = "3" fill="white" />
<circle cx = "452.370" cy = "628.172" r = "3" fill="white" />
<circle cx = "119.230" cy = "844.967" r = "3" fill="white" />
<circle cx = "781.767" cy = "471.841" r = "3" fill="white" />
<circle cx = "902.348" cy = "665.618" r = "3" fill="white" />
<circle cx = "804.549" cy = "264.504" r = "3" fill="white" />
<circle cx = "45.222" cy = "552.010" r = "3" fill="white" />
<circle cx = "226.777" cy = "172.124" r = "3" fill="white" />
<circle cx = "243.809" cy = "908.399" r = "3" fill="white" />
<circle cx = "340.268" cy = "604.325" r = "3" fill="white" />
<circle cx = "389.462" cy = "196.456" r = "3" fill="white" />
<circle cx = "994.060" cy = "929.144" r = "3" fill="white" />
<circle cx = "628.518" cy = "360.991" r = "3" fill="white" />
<circle cx = "442.010" cy = "756.215" r = "3" fill="white" />
<circle cx = "260.345" cy = "104.335" r = "3" fill="white" />
<circle cx = "665.054" cy = "845.365" r = "3" fill="white" />
<circle cx = "682.800" cy = "789.834" r = "3" fill="white" />
<circle cx = "587.941" cy = "575.042" r = "3" fill="white" />
</g>
</svg>
