<svg xmlns = "http://www.w3.org/2000/svg" width = "1000" height = "1000">
<g>
<polygon points = ""
fill = "none" stroke = "white"/>
</g>
<g>
<polygon points = "978.222, 234.262 888.918, 200.543 791.303, 0.000 1000.000, 0.000 1000.000, 233.375 "
fill = "none" stroke = "white"/>
</g>
<g>
<polygon points = ""
fill = "none" stroke = "white"/>
</g>
<g>
<polygon points = ""
fill = "none" stroke = "white"/>
</g>
<g>
<polygon points = ""
fill = "none" stroke = "white"/>
</g>
<g>
<polygon points = ""
fill = "none" stroke = "white"/>
</g>
<g>
<polygon points = "576.793, 585.637 564.937, 583.541 538.369, 447.849 610.665, 417.527 650.816, 572.129 "
fill = "none" stroke = "white"/>
</g>
<g>
<polygon points = ""
fill = "none" stroke = "white"/>
</g>
<g>
<polygon points = "156.500, 322.182 0.000, 193.067 0.000, 16.950 32.987, 0.000 162.804, 0.000 "
fill = "none" stroke = "white"/>
</g>
<g>
<polygon points = ""
fill = "none" stroke = "white"/>
</g>
<g>
<polygon points = ""
fill = "none" stroke = "white"/>
</g>
<g>
<polygon points = "716.258, 44.183 674.361, 3.730 674.822, 0.000 704.368, 0.000 "
fill = "none" stroke = "white"/>
</g>
<g>
<polygon points = ""
fill = "none" stroke = "white"/>
</g>
<g>
<polygon points = ""
fill = "none" stroke = "white"/>
</g>
<g>
<polygon points = ""
fill = "none" stroke = "white"/>
</g>
<g>
<polygon points = ""
fill = "none" stroke = "white"/>
</g>
<g>
<polygon points = ""
fill = "none" stroke = "white"/>
</g>
<g>
<polygon points = "369.712, 270.578 381.758, 326.396 270.072, 371.437 233.529, 339.835 "
fill = "none" stroke = "white"/>
</g>
<g>
<polygon points = ""
fill = "none" stroke = "white"/>
</g>
<g>
<polygon points = "893.494, 425.123 877.855, 365.893 971.266, 258.997 1000.000, 264.600 1000.000, 395.426 "
fill = "none" stroke = "white"/>
</g>
<g>
<polygon points = "971.266, 258.997 978.222, 234.262 1000.000, 233.375 1000.000, 264.600 "
fill = "none" stroke = "white"/>
</g>
<g>
<polygon points = ""
fill = "none" stroke = "white"/>
</g>
<g>
<polygon points = ""
fill = "none" stroke = "white"/>
</g>
<g>
<polygon points = ""
fill = "none" stroke = "white"/>
</g>
<g>
<polygon points = "934.177, 878.086 967.749, 661.285 1000.000, 663.402 1000.000, 869.103 "
fill = "none" stroke = "white"/>
</g>
<g>
<polygon points = ""
fill = "none" stroke = "white"/>
</g>
<g>
<polygon points = "523.796, 633.923 493.917, 616.873 497.572, 609.871 536.987, 609.857 "
fill = "none" stroke = "white"/>
</g>
<g>
<polygon points = ""
fill = "none" stroke = "white"/>
</g>
<g>
<polygon points = "691.290, 909.279 894.548, 869.680 916.800, 884.133 927.241, 1000.000 652.497, 1000.000 "
fill = "none" stroke = "white"/>
</g>
<g>
<polygon points = ""
fill = "none" stroke = "white"/>
</g>
<g>
<polygon points = ""
fill = "none" stroke = "white"/>
</g>
<g>
<polygon points = "277.451, 481.643 252.866, 498.198 104.720, 418.532 167.098, 337.799 233.529, 339.835 270.072, 371.437 "
fill = "none" stroke = "white"/>
</g>
<g>
<polygon points = "162.867, 713.930 272.748, 628.582 201.053, 729.892 "
fill = "none" stroke = "white"/>
</g>
<g>
<polygon points = ""
fill = "none" stroke = "white"/>
</g>
<g>
<polygon points = "0.000, 16.950 0.000, 0.000 32.987, 0.000 "
fill = "none" stroke = "white"/>
</g>
<g>
<polygon points = ""
fill = "none" stroke = "white"/>
</g>
<g>
<polygon points = ""
fill = "none" stroke = "white"/>
</g>
<g>
<polygon points = ""
fill = "none" stroke = "white"/>
</g>
<g>
<polygon points = ""
fill = "none" stroke = "white"/>
</g>
<g>
<polygon points = ""
fill = "none" stroke = "white"/>
</g>
<g>
<polygon points = ""
fill = "none" stroke = "white"/>
</g>
<g>
<polygon points = ""
fill = "none" stroke = "white"/>
</g>
<g>
<polygon points = ""
fill = "none" stroke = "white"/>
</g>
<g>
<polygon points = "522.612, 735.559 410.390, 970.206 363.026, 958.952 299.895, 905.259 219.936, 803.056 201.053, 729.892 272.748, 628.582 274.683, 626.169 493.917, 616.873 523.796, 633.923 "
fill = "none" stroke = "white"/>
</g>
<g>
<polygon points = "226.271, 856.641 219.936, 803.056 299.895, 905.259 "
fill = "none" stroke = "white"/>
</g>
<g>
<polygon points = ""
fill = "none" stroke = "white"/>
</g>
<g>
<polygon points = ""
fill = "none" stroke = "white"/>
</g>
<g>
<polygon points = "675.681, 315.282 752.651, 287.869 877.855, 365.893 893.494, 425.123 828.502, 504.783 718.485, 579.363 650.816, 572.129 610.665, 417.527 "
fill = "none" stroke = "white"/>
</g>
<g>
<polygon points = ""
fill = "none" stroke = "white"/>
</g>
<g>
<polygon points = ""
fill = "none" stroke = "white"/>
</g>
<g>
<polygon points = ""
fill = "none" stroke = "white"/>
</g>
<g>
<polygon points = "104.720, 418.532 252.866, 498.198 274.683, 626.169 272.748, 628.582 162.867, 713.930 0.000, 682.386 0.000, 464.629 "
fill = "none" stroke = "white"/>
</g>
<g>
<polygon points = "363.026, 958.952 410.390, 970.206 418.033, 1000.000 326.469, 1000.000 "
fill = "none" stroke = "white"/>
</g>
<g>
<polygon points = ""
fill = "none" stroke = "white"/>
</g>
<g>
<polygon points = ""
fill = "none" stroke = "white"/>
</g>
<g>
<polygon points = "810.189, 193.719 752.651, 287.869 675.681, 315.282 474.626, 168.296 674.361, 3.730 716.258, 44.183 "
fill = "none" stroke = "white"/>
</g>
<g>
<polygon points = "410.390, 970.206 522.612, 735.559 691.290, 909.279 652.497, 1000.000 418.033, 1000.000 "
fill = "none" stroke = "white"/>
</g>
<g>
<polygon points = "967.749, 661.285 935.349, 635.425 828.502, 504.783 893.494, 425.123 1000.000, 395.426 1000.000, 663.402 "
fill = "none" stroke = "white"/>
</g>
<g>
<polygon points = ""
fill = "none" stroke = "white"/>
</g>
<g>
<polygon points = "431.647, 168.616 474.626, 168.296 675.681, 315.282 610.665, 417.527 538.369, 447.849 381.758, 326.396 369.712, 270.578 "
fill = "none" stroke = "white"/>
</g>
<g>
<polygon points = "674.361, 3.730 474.626, 168.296 431.647, 168.616 420.157, 91.271 433.554, 0.000 674.822, 0.000 "
fill = "none" stroke = "white"/>
</g>
<g>
<polygon points = ""
fill = "none" stroke = "white"/>
</g>
<g>
<polygon points = ""
fill = "none" stroke = "white"/>
</g>
<g>
<polygon points = ""
fill = "none" stroke = "white"/>
</g>
<g>
<polygon points = "935.349, 635.425 785.729, 677.347 718.485, 579.363 828.502, 504.783 "
fill = "none" stroke = "white"/>
</g>
<g>
<polygon points = ""
fill = "none" stroke = "white"/>
</g>
<g>
<polygon points = ""
fill = "none" stroke = "white"/>
</g>
<g>
<polygon points = "888.918, 200.543 810.189, 193.719 716.258, 44.183 704.368, 0.000 791.303, 0.000 "
fill = "none" stroke = "white"/>
</g>
<g>
<polygon points = ""
fill = "none" stroke = "white"/>
</g>
<g>
<polygon points = ""
fill = "none" stroke = "white"/>
</g>
<g>
<polygon points = "156.500, 322.182 167.098, 337.799 104.720, 418.532 0.000, 464.629 0.000, 193.067 "
fill = "none" stroke = "white"/>
</g>
<g>
<polygon points = "277.451, 481.643 270.072, 371.437 381.758, 326.396 538.369, 447.849 564.937, 583.541 557.077, 594.345 536.987, 609.857 497.572, 609.871 "
fill = "none" stroke = "white"/>
</g>
<g>
<polygon points = "420.157, 91.271 377.051, 0.000 433.554, 0.000 "
fill = "none" stroke = "white"/>
</g>
<g>
<polygon points = ""
fill = "none" stroke = "white"/>
</g>
<g>
<polygon points = ""
fill = "none" stroke = "white"/>
</g>
<g>
<polygon points = ""
fill = "none" stroke = "white"/>
</g>
<g>
<polygon points = ""
fill = "none" stroke = "white"/>
</g>
<g>
<polygon points = ""
fill = "none" stroke = "white"/>
</g>
<g>
<polygon points = ""
fill = "none" stroke = "white"/>
</g>
<g>
<polygon points = ""
fill = "none" stroke = "white"/>
</g>
<g>
<polygon points = ""
fill = "none" stroke = "white"/>
</g>
<g>
<polygon points = ""
fill = "none" stroke = "white"/>
</g>
<g>
<polygon points = ""
fill = "none" stroke = "white"/>
</g>
<g>
<polygon points = ""
fill = "none" stroke = "white"/>
</g>
<g>
<polygon points = "162.867, 713.930 201.053, 729.892 219.936, 803.056 226.271, 856.641 153.277, 1000.000 0.000, 1000.000 0.000, 682.386 "
fill = "none" stroke = "white"/>
</g>
<g>
<polygon points = ""
fill = "none" stroke = "white"/>
</g>
<g>
<polygon points = "785.729, 677.347 935.349, 635.425 967.749, 661.285 934.177, 878.086 916.800, 884.133 894.548, 869.680 "
fill = "none" stroke = "white"/>
</g>
<g>
<polygon points = "971.266, 258.997 877.855, 365.893 752.651, 287.869 810.189, 193.719 888.918, 200.543 978.222, 234.262 "
fill = "none" stroke = "white"/>
</g>
<g>
<polygon points = ""
fill = "none" stroke = "white"/>
</g>
<g>
<polygon points = ""
fill = "none" stroke = "white"/>
</g>
<g>
<polygon points = "226.271, 856.641 299.895, 905.259 363.026, 958.952 326.469, 1000.000 153.277, 1000.000 "
fill = "none" stroke = "white"/>
</g>
<g>
<polygon points = "497.572, 609.871 493.917, 616.873 274.683, 626.169 252.866, 498.198 277.451, 481.643 "
fill = "none" stroke = "white"/>
</g>
<g>
<polygon points = ""
fill = "none" stroke = "white"/>
</g>
<g>
<polygon points = "927.241, 1000.000 916.800, 884.133 934.177, 878.086 1000.000, 869.103 1000.000, 1000.000 "
fill = "none" stroke = "white"/>
</g>
<g>
<polygon points = ""
fill = "none" stroke = "white"/>
</g>
<g>
<polygon points = ""
fill = "none" stroke = "white"/>
</g>
<g>
<polygon points = "420.157, 91.271 431.647, 168.616 369.712, 270.578 233.529, 339.835 167.098, 337.799 156.500, 322.182 162.804, 0.000 377.051, 0.000 "
fill = "none" stroke = "white"/>
</g>
<g>
<polygon points = ""
fill = "none" stroke = "white"/>
</g>
<g>
<polygon points = "718.485, 579.363 785.729, 677.347 894.548, 869.680 691.290, 909.279 522.612, 735.559 523.796, 633.923 536.987, 609.857 557.077, 594.345 576.793, 585.637 650.816, 572.129 "
fill = "none" stroke = "white"/>
</g>
<g>
<polygon points = "557.077, 594.345 564.937, 583.541 576.793, 585.637 "
fill = "none" stroke = "white"/>
</g>
<g>
<circle cx = "850.324" cy = "83.887" r = "3" fill="white" />
<circle cx = "896.898" cy = "19.916" r = "3" fill="white" />
<circle cx = "435.125" cy = "396.101" r = "3" fill="white" />
<circle cx = "95.667" cy = "882.874" r = "3" fill="white" />
<circle cx = "950.845" cy = "333.886" r = "3" fill="white" />
<circle cx = "260.508" cy = "470.013" r = "3" fill="white" />
<circle cx = "615.331" cy = "420.127" r = "3" fill="white" />
<circle cx = "940.261" cy = "853.554" r = "3" fill="white" />
<circle cx = "148.929" cy = "102.155" r = "3" fill="white" />
<circle cx = "442.728" cy = "63.701" r = "3" fill="white" />
<circle cx = "322.595" cy = "550.726" r = "3" fill="white" />
<circle cx = "728.465" cy = "81.410" r = "3" fill="white" />
<circle cx = "803.668" cy = "186.568" r = "3" fill="white" />
<circle cx = "791.415" cy = "858.686" r = "3" fill="white" />
<circle cx = "119.846" cy = "76.945" r = "3" fill="white" />
<circle cx = "639.224" cy = "651.518" r = "3" fill="white" />
<circle cx = "762.182" cy = "254.761" r = "3" fill="white" />
<circle cx = "372.999" cy = "325.852" r = "3" fill="white" />
<circle cx = "741.127" cy = "332.967" r = "3" fill="white" />
<circle cx = "897.825" cy = "346.013" r = "3" fill="white" />
<circle cx = "908.043" cy = "293.609" r = "3" fill="white" />
<circle cx = "726.526" cy = "122.941" r = "3" fill="white" />
<circle cx = "550.144" cy = "69.546" r = "3" fill="white" />
<circle cx = "717.200" cy = "295.188" r = "3" fill="white" />
<circle cx = "959.302" cy = "674.437" r = "3" fill="white" />
<circle cx = "512.728" cy = "511.375" r = "3" fill="white" />
<circle cx = "426.043" cy = "649.109" r = "3" fill="white" />
<circle cx = "654.970" cy = "774.605" r = "3" fill="white" />
<circle cx = "714.842" cy = "954.306" r = "3" fill="white" />
<circle cx = "980.018" cy = "353.143" r = "3" fill="white" />
<circle cx = "736.522" cy = "485.055" r = "3" fill="white" />
<circle cx = "249.169" cy = "469.041" r = "3" fill="white" />
<circle cx = "190.493" cy = "674.488" r = "3" fill="white" />
<circle cx = "475.541" cy = "73.719" r = "3" fill="white" />
<circle cx = "125.310" cy = "56.189" r = "3" fill="white" />
<circle cx = "94.084" cy = "899.471" r = "3" fill="white" />
<circle cx = "955.937" cy = "400.811" r = "3" fill="white" />
<circle cx = "41.725" cy = "899.838" r = "3" fill="white" />
<circle cx = "825.788" cy = "355.447" r = "3" fill="white" />
<circle cx = "485.636" cy = "964.861" r = "3" fill="white" />
<circle cx = "562.084" cy = "980.809" r = "3" fill="white" />
<circle cx = "838.125" cy = "489.374" r = "3" fill="white" />
<circle cx = "398.034" cy = "953.005" r = "3" fill="white" />
<circle cx = "347.969" cy = "785.930" r = "3" fill="white" />
<circle cx = "299.795" cy = "823.619" r = "3" fill="white" />
<circle cx = "778.584" cy = "649.135" r = "3" fill="white" />
<circle cx = "536.168" cy = "505.318" r = "3" fill="white" />
<circle cx = "725.380" cy = "391.546" r = "3" fill="white" />
<circle cx = "116.285" cy = "208.136" r = "3" fill="white" />
<circle cx = "258.254" cy = "936.305" r = "3" fill="white" />
<circle cx = "190.463" cy = "454.437" r = "3" fill="white" />
<circle cx = "159.882" cy = "635.078" r = "3" fill="white" />
<circle cx = "305.760" cy = "963.572" r = "3" fill="white" />
<circle cx = "759.922" cy = "332.172" r = "3" fill="white" />
<circle cx = "281.818" cy = "54.308" r = "3" fill="white" />
<circle cx = "645.520" cy = "167.317" r = "3" fill="white" />
<circle cx = "574.997" cy = "894.508" r = "3" fill="white" />
<circle cx = "965.038" cy = "587.074" r = "3" fill="white" />
<circle cx = "693.441" cy = "981.666" r = "3" fill="white" />
<circle cx = "558.958" cy = "285.720" r = "3" fill="white" />
<circle cx = "557.283" cy = "60.223" r = "3" fill="white" />
<circle cx = "987.614" cy = "526.490" r = "3" fill="white" />
<circle cx = "693.813" cy = "82.139" r = "3" fill="white" />
<circle cx = "81.466" cy = "603.470" r = "3" fill="white" />
<circle cx = "896.132" cy = "643.430" r = "3" fill="white" />
<circle cx = "492.312" cy = "386.082" r = "3" fill="white" />
<circle cx = "983.891" cy = "931.433" r = "3" fill="white" />
<circle cx = "822.618" cy = "56.072" r = "3" fill="white" />
<circle cx = "424.623" cy = "843.485" r = "3" fill="white" />
<circle cx = "731.196" cy = "382.800" r = "3" fill="white" />
<circle cx = "3.100" cy = "278.913" r = "3" fill="white" />
<circle cx = "425.971" cy = "457.203" r = "3" fill="white" />
<circle cx = "402.005" cy = "37.430" r = "3" fill="white" />
<circle cx = "38.577" cy = "684.685" r = "3" fill="white" />
<circle cx = "40.433" cy = "246.022" r = "3" fill="white" />
<circle cx = "497.846" cy = "909.676" r = "3" fill="white" />
<circle cx = "183.052" cy = "554.945" r = "3" fill="white" />
<circle cx = "473.447" cy = "239.635" r = "3" fill="white" />
<circle cx = "181.979" cy = "653.252" r = "3" fill="white" />
<circle cx = "381.738" cy = "219.555" r = "3" fill="white" />
<circle cx = "923.105" cy = "242.492" r = "3" fill="white" />
<circle cx = "841.882" cy = "63.183" r = "3" fill="white" />
<circle cx = "271.187" cy = "784.856" r = "3" fill="white" />
<circle cx = "452.370" cy = "628.172" r = "3" fill="white" />
<circle cx = "119.230" cy = "844.967" r = "3" fill="white" />
<circle cx = "781.767" cy = "471.841" r = "3" fill="white" />
<circle cx = "902.348" cy = "665.618" r = "3" fill="white" />
<circle cx = "804.549" cy = "264.504" r = "3" fill="white" />
<circle cx = "45.222" cy = "552.010" r = "3" fill="white" />
<circle cx = "226.777" cy = "172.124" r = "3" fill="white" />
<circle cx = "243.809" cy = "908.399" r = "3" fill="white" />
<circle cx = "340.268" cy = "604.325" r = "3" fill="white" />
<circle cx = "389.462" cy = "196.456" r = "3" fill="white" />
<circle cx = "994.060" cy = "929.144" r = "3" fill="white" />
<circle cx = "628.518" cy = "360.991" r = "3" fill="white" />
<circle cx = "442.010" cy = "756.215" r = "3" fill="white" />
<circle cx = "260.345" cy = "104.335" r = "3" fill="white" />
<circle cx = "665.054" cy = "845.365" r = "3" fill="white" />
<circle cx = "682.800" cy = "789.834" r = "3" fill="white" />
<circle cx = "587.941" cy = "575.042" r = "3" fill="white" />
</g>
</svg>
